<svg width="12" height="13" viewBox="0 0 12 13" fill="none" xmlns="http://www.w3.org/2000/svg">
<path d="M9.89432e-06 1.79009L0.0138535 5.67C0.0152379 6.13094 0.199358 6.5725 0.524683 6.89779L5.75065 12.1232C6.25317 12.6256 7.06717 12.6256 7.56831 12.1232L11.6231 8.06882C12.1256 7.56636 12.1256 6.75245 11.6231 6.25137L6.39853 1.02462C6.07182 0.699335 5.63021 0.515236 5.1706 0.513852L1.29023 0.50001C0.575904 0.497241 -0.00275883 1.07584 9.89432e-06 1.79009ZM4.63347 5.13293C4.14756 5.61879 3.35847 5.61879 2.87118 5.13293C2.38388 4.64708 2.38526 3.85808 2.87118 3.37084C3.35709 2.88361 4.14617 2.88499 4.63347 3.37084C5.12076 3.8567 5.11938 4.64569 4.63347 5.13293Z" fill="#71735E"/>
</svg>
