<?xml version="1.0" encoding="UTF-8"?>
<svg id="Capa_1" xmlns="http://www.w3.org/2000/svg" version="1.1" viewBox="0 0 1920 296.89">
  <!-- Generator: Adobe Illustrator 29.4.0, SVG Export Plug-In . SVG Version: 2.1.0 Build 152)  -->
  <defs>
    <style>
      .st0 {
        fill: none;
        stroke: #e6e9cb;
        stroke-miterlimit: 10;
      }

      .st1 {
        fill: #e7eda4;
      }
    </style>
  </defs>
  <path class="st1" d="M283.2,32.83c.09,0,.12-4.8,3.66-6.74,3.54-1.94,3.58-6.09,3.58-6.09h-9.3v-2.28h2.06c.09,0,.12-4.8,3.66-6.74,3.54-1.94,3.58-6.09,3.58-6.09h-9.3v.2C281.14,2.28,278.72,0,275.73,0h-11.53c-2.99-.02-5.41,2.26-5.41,5.07v-.18h-9.3s.04,4.15,3.58,6.09c3.54,1.96,3.58,6.74,3.66,6.74h2.06v2.26h-9.3s.04,4.15,3.58,6.09c3.54,1.94,3.58,6.74,3.66,6.74h2.06v2.26h-9.3s.04,4.15,3.58,6.09c3.54,1.94,3.58,6.74,3.66,6.74h2.06v5.93c0,2.81,2.42,5.09,5.41,5.09h1.65v204.06h8.22V58.97h1.65c2.99,0,5.41-2.28,5.41-5.09v-5.93h2.06c.09,0,.12-4.8,3.66-6.74,3.54-1.94,3.58-6.09,3.58-6.09h-9.3v-2.26c.62-.04,1.71-.04,2.06-.04ZM269.97,52.55c-3.86,0-6.99-3.13-6.99-6.99s3.13-6.99,6.99-6.99,6.99,3.13,6.99,6.99-3.13,6.99-6.99,6.99ZM269.97,36.46c-3.86,0-6.99-3.13-6.99-6.99s3.13-6.99,6.99-6.99,6.99,3.13,6.99,6.99-3.13,6.99-6.99,6.99ZM269.97,20.39c-3.86,0-6.99-3.13-6.99-6.99s3.13-6.99,6.99-6.99,6.99,3.13,6.99,6.99-3.13,6.99-6.99,6.99ZM331.59,107.26s-3.1.61-3.5,3.79c0,0-.34,1.12-.64,2.07-.3.94-.23,1.17-.23,1.17,0,0-.09.5.05.84,0,0-.16.91.11,1.44,0,0-1.39,2.21.32,4.59,0,0,.5,2.67.84,3.52.34.85,1.67,1.26,3.22,1.1,0,0,1.64,1.48,1.94,6.62,0,0-1.21,2.47-4.27,6.12-3.06,3.66-4.09,6.89-4.34,8.63-.25,1.74-.28,4.31-.28,4.31l-1.64-1.28s-.27-2.83-.53-3.54c-.27-.71-1.71-2.47-1.71-2.47l-1-.39v-2.15h.5v-.39l-.21-.11s-.96-1-3.11-1-3.36,1.07-3.36,1.07l-.32.14v.55h.34v1.32s-.59.27-.82.59c-.21.34-.09.92-.05,1.01.04.09.21.37.21.37,0,0-.32.6-.37,1.21-.05.59.46.78.46.78,0,0-.25.85-.14,1.3.11.45.64.52.64.52,0,0-.11,1.01.04,1.6.12.57.89.52.89.52,0,0,1.48,1.01,2.99,1.98,1.51.94,3.17.85,3.43,1,.28.16,2.72,3.2,2.72,3.2l-.55,4.45.12.52,2.69-.59.05,3.49-.53.12-.12,5.09s-.53,13.54.02,19.15c.55,5.61,4.39,19.41,5.3,26.12.91,6.71,0,7.67.3,11.14.3,3.49.89,7.53.46,10.89-.41,3.36-.3,4.97-.16,5.75.16.8.04,2.01.04,2.01h.34s-.53,1.9-1.12,3.17c0,0-.3-.27-.66-.25-.36.02-.59.39-.89.94-.3.55-2.99,2.44-5.41,3.17-2.42.73-3.24,1.39-3.24,1.39,0,0-2.65-.05-3.72.27-1.09.32-1.89,1.6-1.89,2.3s2.88,2.08,8.56,2.83c5.68.77,14.77.87,15.67.57.91-.3-.3-2.62-.11-5.32.2-2.71-.18-3.52-.93-3.35,0,0,.55-5.8.8-6.05.25-.25,1.41-.41,1.41-.41v-3.02s.28-1.16.41-1.41c.12-.25.89-5.04.98-12.79.07-7.76-.16-12.37.23-15.93,0,0,2.92,2.6,5.09,7.67,2.17,5.07,4.04,4.96,5.25,7.21,1.21,2.24,1.44,4.88,2.6,6.16,1.16,1.28,1.97,2.65,1.87,4.4-.11,1.74,1.26,2.78,2.01,2.79,0,0,.2.8.53.94.36.16.66.18.66.18,0,0,.16,2.87.12,4.73,0,0-.76-.59-1.42.12-.66.71.07,1.73.37,3.13.3,1.42-.46,4.96-1.26,5.59-.82.62-3.38,1.19-3.68,2.62-.3,1.42.89,2.19,1.8,2.4.91.21,4.41.85,7.61-1.5,3.22-2.35,8.91-8.45,9.54-9.8.62-1.34.73-1.46.41-2.14-.32-.68-3.59-2.56-4.5-3.81-.91-1.25-1.76-1.49-1.97-.85,0,0-1.8-3.54-1.78-3.86.02-.32.77-.77.43-1.64-.32-.89-3.38-9.31-4.86-14.04-1.48-4.73-5.04-6.82-6.01-10.45-.98-3.63-4.09-7.22-4.09-7.22,0,0,.5-.91-.46-3.33-.94-2.42-2.05-8.17-1.92-10.21.11-2.05-.68-4.13-.68-4.13,0,0,.77-8.13-2.83-14.11,0,0,6.81-9.54,6.78-10.37-.03-.84-1.48-13.61-1.48-13.61,0,0,3.66-2.79,2.42-9.16,0,0,.98,2.4.36,6.08,0,0,1.33-3.13-.37-7.94,0,0,1.19,2.24,1.62,5.5,0,0,.84-4.34-3.33-11.14,0,0,3.2,4.65,3.93,7.21,0,0-.93-5.82-4.22-11.48-3.27-5.64-5.73-15.89-9.98-19.5-4.25-3.7-8.09-1.55-8.75-.69Z"/>
  <path class="st1" d="M21.56,296.89l-5.83-5.24h57l5.83,5.24H21.56ZM117.48,296.89l-5.83-5.24h57l5.83,5.24h-57ZM213.4,296.89l-5.83-5.24h57l5.83,5.24h-57ZM309.31,296.89l-5.83-5.24h57l5.83,5.24h-57ZM405.23,296.89l-5.83-5.24h57l5.83,5.24h-57ZM501.15,296.89l-5.83-5.24h57l5.83,5.24h-57ZM597.07,296.89l-5.83-5.24h57l5.83,5.24h-57ZM692.98,296.89l-5.83-5.24h57l5.83,5.24h-57ZM788.9,296.89l-5.83-5.24h57l5.83,5.24h-57ZM884.82,296.89l-5.83-5.24h57l5.83,5.24h-57ZM980.75,296.89l-5.83-5.24h57l5.82,5.24h-56.99ZM1090.32,296.89h-13.65l-5.83-5.24h53.97l5.83,5.24h-40.31ZM1169.55,296.89l-5.83-5.24h57l5.83,5.24h-57ZM1265.47,296.89l-5.83-5.24h57l5.83,5.24h-57ZM1361.39,296.89l-5.83-5.24h57l5.83,5.24h-57ZM1457.3,296.89l-5.82-5.24h57l5.83,5.24h-57.01ZM1553.23,296.89l-5.83-5.24h57l5.83,5.24h-57ZM1649.15,296.89l-5.83-5.24h57l5.83,5.24h-57ZM1745.07,296.89l-5.83-5.24h57l5.83,5.24h-57ZM1840.99,296.89l-5.83-5.24h57l5.83,5.24h-57Z"/>
  <line class="st0" y1="263.6" x2="1920" y2="263.6"/>
</svg>