<svg width="36" height="36" viewBox="0 0 36 36" fill="none" xmlns="http://www.w3.org/2000/svg">
<path fill-rule="evenodd" clip-rule="evenodd" d="M11.1154 16.6297C11.1154 15.1671 11.6964 13.7643 12.7306 12.73C13.7648 11.6957 15.1675 11.1147 16.6301 11.1147C18.0927 11.1147 19.4954 11.6957 20.5296 12.73C21.5638 13.7643 22.1448 15.1671 22.1448 16.6297C22.1448 18.0924 21.5638 19.4952 20.5296 20.5295C19.4954 21.5637 18.0927 22.1448 16.6301 22.1448C15.1675 22.1448 13.7648 21.5637 12.7306 20.5295C11.6964 19.4952 11.1154 18.0924 11.1154 16.6297ZM16.6301 8.35718C15.3282 8.35701 14.0447 8.66415 12.8839 9.25361C11.723 9.84307 10.7177 10.6982 9.94972 11.7495C9.18169 12.8007 8.67262 14.0185 8.46392 15.3036C8.25521 16.5887 8.35277 17.9049 8.74864 19.1452C9.14452 20.3856 9.82753 21.5149 10.7421 22.4415C11.6568 23.368 12.7771 24.0656 14.0122 24.4775C15.2472 24.8893 16.562 25.0039 17.8496 24.8118C19.1373 24.6197 20.3614 24.1263 21.4224 23.3719L25.3062 27.2559C25.5662 27.507 25.9145 27.646 26.2759 27.6428C26.6374 27.6397 26.9832 27.4947 27.2388 27.2391C27.4945 26.9834 27.6395 26.6376 27.6426 26.2761C27.6457 25.9146 27.5068 25.5663 27.2556 25.3063L23.3733 21.4237C24.2532 20.1861 24.7756 18.7301 24.8831 17.2153C24.9906 15.7005 24.679 14.1853 23.9826 12.8358C23.2862 11.4863 22.2317 10.3546 20.9348 9.56459C19.6379 8.77461 18.1486 8.35688 16.6301 8.35718Z" fill="#A5AD4A"/>
</svg>
