<svg width="46" height="46" viewBox="0 0 46 46" fill="none" xmlns="http://www.w3.org/2000/svg">
<path d="M33.149 37.375H12.851C10.5217 37.375 8.625 35.4744 8.625 33.1404V12.8596C8.625 10.5256 10.5217 8.625 12.851 8.625H33.149C35.4783 8.625 37.375 10.5256 37.375 12.8596V33.1404C37.375 35.4744 35.4783 37.375 33.149 37.375ZM12.851 10.0421C11.3037 10.0421 10.0392 11.3091 10.0392 12.8596V33.1404C10.0392 34.6909 11.3037 35.9579 12.851 35.9579H33.149C34.6963 35.9579 35.9608 34.6909 35.9608 33.1404V12.8596C35.9608 11.3091 34.6963 10.0421 33.149 10.0421H12.851ZM16.9106 30.9815C15.8208 30.9815 14.939 30.0979 14.939 29.0059V21.1286C14.939 20.0366 15.8208 19.1531 16.9106 19.1531C18.0004 19.1531 18.8822 20.0366 18.8822 21.1286V29.0059C18.8905 30.0896 18.0004 30.9815 16.9106 30.9815ZM16.9106 19.9866C16.2784 19.9866 15.7709 20.5034 15.7709 21.1286V29.0059C15.7709 29.6394 16.2867 30.1479 16.9106 30.1479C17.5345 30.1479 18.0503 29.6311 18.0503 29.0059V21.1286C18.0586 20.4951 17.5428 19.9866 16.9106 19.9866ZM23 30.9815C21.9102 30.9815 21.0284 30.0979 21.0284 29.0059V25.0464C21.0284 23.9544 21.9102 23.0709 23 23.0709C24.0898 23.0709 24.9716 23.9544 24.9716 25.0464V29.0059C24.9716 30.0896 24.0898 30.9815 23 30.9815ZM23 23.9044C22.3678 23.9044 21.8603 24.4212 21.8603 25.0464V29.0059C21.8603 29.6394 22.3761 30.1479 23 30.1479C23.6239 30.1479 24.1397 29.6311 24.1397 29.0059V25.0464C24.1397 24.4129 23.6322 23.9044 23 23.9044ZM29.0561 30.9815C27.9664 30.9815 27.0846 30.0979 27.0846 29.0059V16.9691C27.0846 15.8771 27.9664 14.9935 29.0561 14.9935C30.1459 14.9935 31.0277 15.8771 31.0277 16.9691V29.0059C31.0277 30.0896 30.1459 30.9815 29.0561 30.9815ZM29.0561 15.8271C28.4239 15.8271 27.9164 16.3439 27.9164 16.9691V29.0059C27.9164 29.6394 28.4322 30.1479 29.0561 30.1479C29.68 30.1479 30.1958 29.6311 30.1958 29.0059V16.9691C30.1958 16.3356 29.6884 15.8271 29.0561 15.8271Z" fill="#71735E"/>
</svg>
