<svg width="23" height="24" viewBox="0 0 23 24" fill="none" xmlns="http://www.w3.org/2000/svg">
<path d="M17.6096 14.6183H13.9685L12.7344 15.8524C12.4057 16.1811 11.9666 16.3638 11.5002 16.3638C11.0338 16.3638 10.5958 16.1823 10.2661 15.8524L9.03191 14.6183H5.39083C4.9089 14.6183 4.51807 15.0091 4.51807 15.491V18.1093C4.51807 18.5913 4.9089 18.9821 5.39083 18.9821H17.6096C18.0915 18.9821 18.4824 18.5913 18.4824 18.1093V15.491C18.4824 15.0083 18.0923 14.6183 17.6096 14.6183ZM16.3004 17.4548C15.9404 17.4548 15.6459 17.1602 15.6459 16.8002C15.6459 16.4402 15.9404 16.1456 16.3004 16.1456C16.6604 16.1456 16.955 16.4402 16.955 16.8002C16.955 17.1602 16.6604 17.4548 16.3004 17.4548ZM10.8838 15.2347C11.0529 15.4065 11.2766 15.491 11.5002 15.491C11.7239 15.491 11.947 15.4058 12.1171 15.2353L15.6082 11.7443C15.9489 11.4033 15.9489 10.851 15.6082 10.5101C15.2673 10.1692 14.7147 10.1692 14.3741 10.5101L12.373 12.5127V5.89059C12.373 5.40866 11.9821 5.01782 11.5002 5.01782C11.0175 5.01782 10.6274 5.40866 10.6274 5.89059V12.5127L8.62553 10.5108C8.28488 10.1699 7.73231 10.1699 7.39138 10.5108C7.05073 10.8517 7.05073 11.404 7.39138 11.745L10.8838 15.2347Z" fill="#4F5700"/>
</svg>
