<svg width="112" height="112" viewBox="0 0 112 112" fill="none" xmlns="http://www.w3.org/2000/svg">
<path d="M41.2339 48.0419L47.3778 51.6815L45.7111 54.2645L40.0084 49.9036L41.2339 48.0419ZM39.8777 47.2368L36.8711 45.459L35.9887 46.8343L38.7665 48.9644L39.8777 47.2368ZM34.5017 52.7046C33.9625 51.866 32.9331 51.5473 32.018 51.8995L22.6224 55.5727L28.2108 46.8846C28.7173 46.0963 28.6683 45.09 28.0964 44.352L21.74 36.2342L31.5115 39.0016C32.4102 39.2532 33.3252 38.8842 33.8318 38.1127L39.3875 29.4078L39.8287 39.7228C39.8777 40.7124 40.564 41.551 41.528 41.7355L52.8845 43.983C53.5708 44.1004 54.2407 43.6476 54.3714 42.9431C54.5022 42.2387 54.0446 41.551 53.3583 41.4168L42.3614 39.3035L41.7568 25.2483C41.7405 24.678 41.3646 24.1916 40.8254 24.0407C40.2862 23.9065 39.7306 24.1078 39.4201 24.5942L31.9363 36.4187L18.6191 32.6281C18.0798 32.4772 17.5243 32.6952 17.2138 33.1816C16.9033 33.6512 16.936 34.2718 17.2792 34.7247L25.9395 45.677L18.3249 57.5183C18.0145 57.9879 18.0472 58.6085 18.3903 59.0613C18.7334 59.4974 19.3217 59.6651 19.8446 59.4639L32.5573 54.4322L38.8973 63.9924C39.1424 64.3446 39.5345 64.5627 39.943 64.5627C40.2045 64.5627 40.4496 64.4788 40.662 64.3446C41.2339 63.9421 41.3973 63.1203 41.0051 62.5332L34.5017 52.7046ZM86.2022 65.8374C84.8132 65.4516 83.3753 66.2902 82.9995 67.7159C82.8197 68.4035 82.9014 69.1248 83.2609 69.7453C83.6041 70.3659 84.176 70.8188 84.8459 71.0033C85.0747 71.0704 85.3035 71.1039 85.5322 71.1039C86.676 71.1039 87.7382 70.3156 88.0486 69.1248C88.4081 67.6991 87.5911 66.2231 86.2022 65.8374ZM94.6174 72.0767L90.9408 85.981C90.467 87.7588 88.8983 89 87.1009 89C86.7577 89 86.4146 88.9497 86.0551 88.8658L83.8165 88.2285C82.7871 87.9433 81.9374 87.2557 81.4145 86.3164C80.8916 85.3772 80.7445 84.2702 81.0223 83.2135L82.0027 79.4901L53.4564 71.5232L52.476 75.2299C52.0021 77.0078 50.4334 78.2322 48.636 78.2322C48.2929 78.2322 47.9334 78.1818 47.6066 78.098L45.3516 77.4774C44.3222 77.1923 43.4725 76.5046 42.9496 75.5653C42.4267 74.6261 42.2797 73.5191 42.5575 72.4625L46.234 58.5582C47.2961 54.5664 50.3844 51.5809 54.3388 50.7087L59.7474 40.8298C61.4794 37.6766 65.0743 36.1335 68.473 37.0728L86.0224 41.9703C89.4375 42.9263 91.7742 46.1131 91.7088 49.7527L91.4964 61.1076C92.3788 61.9294 93.0651 62.7848 93.5716 63.7073C95.0095 66.2902 95.369 69.2422 94.6174 72.0767ZM46.0216 69.4602L45.0412 73.1669C44.8288 73.9384 45.2863 74.7603 46.0379 74.9615L48.2929 75.5821C49.0609 75.7834 49.8289 75.3305 50.0413 74.559L51.0217 70.8355L46.0216 69.4602ZM91.3657 65.0323C90.2872 63.0867 88.5388 61.6946 86.4309 61.1076L58.7179 53.3755C54.3714 52.1679 49.8942 54.8012 48.7177 59.2626L46.6915 66.9276L90.1402 79.054L92.1663 71.389C92.7383 69.2422 92.4605 66.9779 91.3657 65.0323ZM61.986 42.1548L57.4761 50.4068C57.8356 50.4571 58.2114 50.541 58.5709 50.6416L87.9669 58.8433C88.3264 58.9439 88.6859 59.0613 89.0127 59.1955L89.1924 49.7359C89.2414 47.3039 87.6728 45.1738 85.3852 44.5365L67.8194 39.639C65.5318 39.0016 63.1298 40.0247 61.986 42.1548ZM84.4701 80.1945L83.4897 83.918C83.2936 84.6895 83.7348 85.4946 84.4864 85.7126L86.7414 86.3332C87.493 86.5345 88.2774 86.0816 88.4898 85.3101L89.4702 81.5866L84.4701 80.1945ZM32.1651 43.9159L35.4658 46.4318L36.3155 45.1235L32.786 43.027L32.1651 43.9159ZM56.5937 57.5686C55.2048 57.1828 53.7669 58.0215 53.391 59.4471C53.0152 60.8728 53.8322 62.3487 55.2211 62.7345C55.4499 62.8016 55.6787 62.8351 55.9074 62.8351C57.0676 62.8351 58.1133 62.0468 58.4238 60.856C58.6036 60.1683 58.5219 59.4471 58.1624 58.8265C57.8356 58.206 57.28 57.7699 56.5937 57.5686Z" fill="url(#paint0_linear_8685_2225)"/>
<defs>
<linearGradient id="paint0_linear_8685_2225" x1="56" y1="24" x2="56" y2="89" gradientUnits="userSpaceOnUse">
<stop stop-color="white"/>
<stop offset="1" stop-color="#F9FFBD"/>
</linearGradient>
</defs>
</svg>
