<svg width="28" height="28" viewBox="0 0 28 28" fill="none" xmlns="http://www.w3.org/2000/svg">
<path d="M15.1992 2.33444C16.0505 2.33118 16.9019 2.33973 17.753 2.36011L17.9794 2.36828C18.2407 2.37761 18.4985 2.38928 18.81 2.40328C20.0514 2.46161 20.8984 2.65761 21.6415 2.94578C22.4115 3.24211 23.0602 3.64344 23.7089 4.29211C24.302 4.87498 24.761 5.58005 25.054 6.35828C25.3422 7.10144 25.5382 7.94961 25.5965 9.19094C25.6105 9.50128 25.6222 9.76028 25.6315 10.0216L25.6385 10.2479C25.6593 11.0987 25.6682 11.9496 25.6654 12.8006L25.6665 13.6709V15.1993C25.6694 16.0506 25.6605 16.902 25.6397 17.7531L25.6327 17.9794C25.6234 18.2408 25.6117 18.4986 25.5977 18.8101C25.5394 20.0514 25.341 20.8984 25.054 21.6416C24.7619 22.4207 24.3028 23.1263 23.7089 23.7089C23.1255 24.302 22.4201 24.761 21.6415 25.0541C20.8984 25.3423 20.0514 25.5383 18.81 25.5966C18.4985 25.6106 18.2407 25.6223 17.9794 25.6316L17.753 25.6386C16.9019 25.6593 16.0506 25.6683 15.1992 25.6654L14.3289 25.6666H12.8017C11.9503 25.6695 11.099 25.6605 10.2479 25.6398L10.0215 25.6328C9.74457 25.6227 9.46768 25.6111 9.19086 25.5978C7.94953 25.5394 7.10253 25.3411 6.35819 25.0541C5.57966 24.7617 4.87447 24.3026 4.29203 23.7089C3.69825 23.1259 3.23879 22.4204 2.94569 21.6416C2.65753 20.8984 2.46153 20.0514 2.40319 18.8101C2.3902 18.5333 2.37853 18.2564 2.36819 17.9794L2.36236 17.7531C2.34085 16.902 2.33113 16.0506 2.33319 15.1993V12.8006C2.32994 11.9496 2.33849 11.0987 2.35886 10.2479L2.36703 10.0216C2.37636 9.76028 2.38803 9.50128 2.40203 9.19094C2.46036 7.94844 2.65636 7.10261 2.94453 6.35828C3.23779 5.57967 3.69815 4.8748 4.29319 4.29328C4.87524 3.69915 5.57998 3.23928 6.35819 2.94578C7.10253 2.65761 7.94836 2.46161 9.19086 2.40328L10.0215 2.36828L10.2479 2.36244C11.0986 2.34095 11.9495 2.33122 12.8005 2.33328L15.1992 2.33444ZM13.9999 8.16778C13.2269 8.15684 12.4596 8.29964 11.7423 8.58786C11.0251 8.87607 10.3723 9.30397 9.82185 9.84667C9.27141 10.3894 8.83433 11.0361 8.53599 11.7492C8.23766 12.4623 8.08403 13.2275 8.08403 14.0005C8.08403 14.7735 8.23766 15.5388 8.53599 16.2519C8.83433 16.965 9.27141 17.6117 9.82185 18.1544C10.3723 18.6971 11.0251 19.125 11.7423 19.4132C12.4596 19.7014 13.2269 19.8442 13.9999 19.8333C15.547 19.8333 17.0307 19.2187 18.1246 18.1247C19.2186 17.0308 19.8332 15.547 19.8332 13.9999C19.8332 12.4528 19.2186 10.9691 18.1246 9.87515C17.0307 8.78119 15.547 8.16778 13.9999 8.16778ZM13.9999 10.5011C14.4648 10.4925 14.9268 10.5767 15.3588 10.7487C15.7908 10.9207 16.1843 11.177 16.5161 11.5027C16.8479 11.8285 17.1116 12.2171 17.2915 12.6458C17.4715 13.0746 17.5643 13.5349 17.5643 13.9999C17.5644 14.4649 17.4718 14.9253 17.292 15.3541C17.1122 15.7829 16.8487 16.1716 16.5169 16.4975C16.1852 16.8233 15.7918 17.0798 15.3599 17.2519C14.9279 17.424 14.466 17.5084 14.001 17.4999C13.0728 17.4999 12.1825 17.1312 11.5262 16.4748C10.8698 15.8184 10.501 14.9282 10.501 13.9999C10.501 13.0717 10.8698 12.1814 11.5262 11.5251C12.1825 10.8687 13.0728 10.4999 14.001 10.4999L13.9999 10.5011ZM20.1249 6.41778C19.7485 6.43284 19.3925 6.59295 19.1316 6.86458C18.8706 7.1362 18.7248 7.49827 18.7248 7.87494C18.7248 8.25162 18.8706 8.61369 19.1316 8.88531C19.3925 9.15693 19.7485 9.31705 20.1249 9.33211C20.5116 9.33211 20.8826 9.17846 21.1561 8.90497C21.4295 8.63148 21.5832 8.26055 21.5832 7.87378C21.5832 7.487 21.4295 7.11607 21.1561 6.84258C20.8826 6.56909 20.5116 6.41544 20.1249 6.41544V6.41778Z" fill="#A5AD4A"/>
</svg>
