<svg width="28" height="28" viewBox="0 0 28 28" fill="none" xmlns="http://www.w3.org/2000/svg">
<path d="M26.2035 6.99996C25.3052 7.40829 24.3369 7.67663 23.3335 7.80496C24.3602 7.18663 25.1535 6.20663 25.5269 5.02829C24.5585 5.61163 23.4852 6.01996 22.3535 6.25329C21.4319 5.24996 20.1369 4.66663 18.6669 4.66663C15.9252 4.66663 13.6852 6.90663 13.6852 9.67163C13.6852 10.0683 13.7319 10.4533 13.8135 10.815C9.66021 10.605 5.96187 8.60996 3.50021 5.58829C3.06854 6.32329 2.82354 7.18663 2.82354 8.09663C2.82354 9.83496 3.69854 11.375 5.05187 12.25C4.22354 12.25 3.45354 12.0166 2.77688 11.6666V11.7016C2.77688 14.1283 4.50354 16.1583 6.79021 16.6133C6.05606 16.8142 5.28532 16.8422 4.53854 16.695C4.85542 17.6895 5.476 18.5598 6.31306 19.1834C7.15012 19.807 8.16156 20.1526 9.20521 20.1716C7.43611 21.5721 5.2432 22.3292 2.98687 22.3183C2.59021 22.3183 2.19354 22.295 1.79688 22.2483C4.01354 23.6716 6.65021 24.5 9.47354 24.5C18.6669 24.5 23.7185 16.87 23.7185 10.255C23.7185 10.0333 23.7185 9.82329 23.7069 9.60163C24.6869 8.90163 25.5269 8.01496 26.2035 6.99996Z" fill="#A5AD4A"/>
</svg>
