<svg width="28" height="28" viewBox="0 0 28 28" fill="none" xmlns="http://www.w3.org/2000/svg">
<path d="M9.60611 10.2814C11.2622 8.62642 14.0144 8.62642 15.6705 10.2814C17.1598 11.77 17.3802 14.1429 16.156 15.8547L16.1232 15.9024C15.8164 16.3281 15.2207 16.4293 14.7948 16.1227C14.3659 15.816 14.2646 15.2206 14.5714 14.7949L14.6042 14.7472C15.2862 13.7915 15.179 12.4846 14.348 11.6539C13.4127 10.7191 11.8907 10.7191 10.9524 11.6539L7.61047 14.9973C6.67192 15.9083 6.67192 17.4535 7.61047 18.3913C8.43851 19.2219 9.74909 19.3291 10.7022 18.6473L10.7499 18.5878C11.1788 18.3079 11.7745 18.4062 12.0783 18.8349C12.3851 19.2636 12.2868 19.8591 11.8579 20.1657L11.8103 20.1985C10.0708 21.4221 7.75046 21.2256 6.26148 19.74C4.57951 18.0579 4.57951 15.3308 6.26148 13.6516L9.60611 10.2814ZM18.3929 17.6917C16.71 19.3738 13.9846 19.3738 12.3017 17.6917C10.8124 16.2031 10.6188 13.857 11.843 12.1452L11.8758 12.0975C12.1558 11.6718 12.7515 11.5706 13.2042 11.8772C13.6331 12.1571 13.7344 12.7525 13.4276 13.205L13.3949 13.2527C12.7128 14.1816 12.82 15.5153 13.651 16.346C14.5863 17.2808 16.1083 17.2808 17.0466 16.346L20.3885 13.0026C21.3268 12.0648 21.3268 10.5196 20.3885 9.60859C19.5605 8.77885 18.2499 8.67048 17.2968 9.35255L17.2491 9.3853C16.8202 9.69195 16.2245 9.56691 15.9207 9.16439C15.6139 8.73627 15.7122 8.14113 16.1411 7.83537L16.1888 7.80203C17.9014 6.57873 20.2485 6.77282 21.7378 8.26111C23.4207 9.94204 23.4207 12.6691 21.7378 14.3483L18.3929 17.6917Z" fill="#ACBD00"/>
</svg>
